<?xml version="1.0" encoding="UTF-8"?>
<svg xmlns="http://www.w3.org/2000/svg" version="1.1" viewBox="0 0 1568.4 699.52">
  <!-- Generator: Adobe Illustrator 30.2.1, SVG Export Plug-In . SVG Version: 2.1.1 Build 1)  -->
  <defs>
    <style>
      .st0 {
        stroke: #000;
        stroke-width: 1px;
      }

      .st0, .st1, .st2 {
        fill: none;
        stroke-miterlimit: 10;
      }

      .st1 {
        stroke-width: .4px;
      }

      .st1, .st2 {
        stroke: #0f0400;
      }

      .st3 {
        fill: #fff;
      }

      .st4 {
        display: none;
      }

      .st2 {
        stroke-width: .5px;
      }
    </style>
  </defs>
  <g id="Logo">
    <g>
      <g>
        <path class="st3" d="M614.11,101.63h10.72v28.09l17.19-28.09h11.52l-17.64,27.74,18.79,33.59h-12.05l-17.81-32.97v32.97h-10.72v-61.33Z"/>
        <path class="st3" d="M661.26,157.02l6.11-.98v-47.5l-6.11-1.06v-5.85h23.04v5.85l-6.12,1.06v47.5l6.12.98v5.94h-23.04v-5.94Z"/>
        <path class="st3" d="M706.37,110.85h-13.91v-9.22h38.37v9.22h-13.91v52.11h-10.55v-52.11Z"/>
        <path class="st3" d="M741.65,101.63h32.08v9.13h-21.36v15.69h17.1v8.95h-17.1v18.34h22.69v9.22h-33.41v-61.33Z"/>
        <path class="st3" d="M615.26,208.43h5.58v60.88h-5.58v-60.88ZM622.53,236.53l21-28.09h6.2l-20.92,27.83,21.54,33.06h-6.38l-21.45-32.79Z"/>
        <path class="st3" d="M656.48,248.22c0-15.77,6.91-22.16,16.75-22.16s17.02,6.29,17.02,22.07-6.91,22.07-16.84,22.07-16.93-6.29-16.93-21.98ZM684.66,248.31c0-13.38-3.99-17.99-11.34-17.99s-11.26,4.34-11.26,17.72,3.99,17.9,11.34,17.9,11.26-4.34,11.26-17.64Z"/>
        <path class="st3" d="M703.36,226.95h3.72l1.24,5.85c3.99-3.81,7.98-6.74,13.03-6.74,4.7,0,7.89,2.48,9.39,6.56,4.34-3.9,8.42-6.56,13.2-6.56,5.85,0,9.93,3.46,9.93,10.81v32.44h-5.32v-31.02c0-5.58-1.77-7.53-5.76-7.53s-7.8,2.3-11.52,5.58v32.97h-5.32v-31.02c0-5.58-1.77-7.53-5.76-7.53s-7.71,2.57-11.52,5.85v32.7h-5.32v-42.36Z"/>
        <path class="st3" d="M769.39,226.95h3.72l1.24,5.67c3.19-3.54,7.62-6.56,12.67-6.56,8.42,0,14.36,5.94,14.36,22.07,0,15.24-5.14,22.07-14.71,22.07-5.32,0-9.22-2.75-11.96-5.58v22.78h-5.32v-60.44ZM795.8,248.58c0-14.18-3.19-17.9-9.57-17.9-4.87,0-8.42,3.01-11.52,5.85v23.84c3.1,3.1,6.74,5.23,10.99,5.23,6.65,0,10.1-3.9,10.1-17.02Z"/>
        <path class="st3" d="M829.21,265.68c4.87,0,7.8-1.68,10.55-3.81l2.92,3.72c-3.63,2.92-7.62,4.61-13.47,4.61-10.1,0-17.19-5.67-17.19-21.98s6.82-22.16,16.22-22.16,15.15,6.2,15.15,20.65v2.22h-25.79c.18,12.85,3.63,16.75,11.61,16.75ZM837.9,244.77c0-10.81-3.19-14.36-9.75-14.36-5.94,0-9.84,3.28-10.46,14.36h20.21Z"/>
        <path class="st3" d="M852.17,231.3v-4.34h5.14v-11.17l5.23-1.24v12.41h8.86v4.34h-8.86v30.66c0,2.57,1.15,3.9,3.54,3.9,2.22,0,3.81-.71,4.96-1.24l1.33,3.9c-1.77.89-3.72,1.68-6.56,1.68-4.79,0-8.51-2.22-8.51-7.98v-30.93h-5.14Z"/>
        <path class="st3" d="M898.43,265.68c4.87,0,7.8-1.68,10.55-3.81l2.92,3.72c-3.63,2.92-7.62,4.61-13.47,4.61-10.1,0-17.19-5.67-17.19-21.98s6.82-22.16,16.22-22.16,15.15,6.2,15.15,20.65v2.22h-25.79c.18,12.85,3.63,16.75,11.61,16.75ZM907.11,244.77c0-10.81-3.19-14.36-9.75-14.36-5.94,0-9.84,3.28-10.46,14.36h20.21Z"/>
        <path class="st3" d="M925.64,226.95h3.72l1.24,6.11c4.17-4.08,8.6-7,13.83-7,6.03,0,10.46,3.54,10.46,10.9v32.35h-5.32v-30.93c0-5.67-2.04-7.62-6.38-7.62s-8.42,2.75-12.23,6.11v32.44h-5.32v-42.36Z"/>
        <path class="st3" d="M967.12,264.44l22.07-33.15h-20.21v-4.34h25.7v4.87l-21.98,33.14h22.69v4.34h-28.27v-4.87Z"/>
        <path class="st3" d="M1004.43,264.44l22.07-33.15h-20.21v-4.34h25.7v4.87l-21.98,33.14h22.69v4.34h-28.27v-4.87Z"/>
        <path class="st3" d="M1059.38,265.68c4.87,0,7.8-1.68,10.55-3.81l2.92,3.72c-3.63,2.92-7.62,4.61-13.47,4.61-10.1,0-17.19-5.67-17.19-21.98s6.82-22.16,16.22-22.16,15.15,6.2,15.15,20.65v2.22h-25.79c.18,12.85,3.63,16.75,11.61,16.75ZM1068.06,244.77c0-10.81-3.19-14.36-9.75-14.36-5.94,0-9.84,3.28-10.46,14.36h20.21Z"/>
        <path class="st3" d="M1086.59,226.95h3.72l1.24,6.11c4.17-4.08,8.6-7,13.83-7,6.03,0,10.46,3.54,10.46,10.9v32.35h-5.32v-30.93c0-5.67-2.04-7.62-6.38-7.62s-8.42,2.75-12.23,6.11v32.44h-5.32v-42.36Z"/>
        <path class="st3" d="M1127,231.3v-4.34h5.14v-11.17l5.23-1.24v12.41h8.86v4.34h-8.86v30.66c0,2.57,1.15,3.9,3.54,3.9,2.22,0,3.81-.71,4.96-1.24l1.33,3.9c-1.77.89-3.72,1.68-6.56,1.68-4.79,0-8.51-2.22-8.51-7.98v-30.93h-5.14Z"/>
        <path class="st3" d="M1158.82,226.95h3.72l1.24,7.18c3.54-4.34,7.8-7.8,12.85-7.8.44,0,1.24.09,1.33.18l-.53,5.67c-.35-.18-1.06-.27-1.86-.27-4.34,0-7.62,2.22-11.43,6.29v31.11h-5.32v-42.36Z"/>
        <path class="st3" d="M1188.24,259.04v-32.08h5.23v30.66c0,5.76,2.3,7.89,6.56,7.89s8.33-2.48,12.23-5.67v-32.88h5.32v42.36h-3.81l-1.24-5.67c-3.99,3.81-8.33,6.56-13.56,6.56-6.12,0-10.72-3.63-10.72-11.17Z"/>
        <path class="st3" d="M1233.44,226.95h3.72l1.24,5.85c3.99-3.81,7.98-6.74,13.03-6.74,4.7,0,7.89,2.48,9.39,6.56,4.34-3.9,8.42-6.56,13.2-6.56,5.85,0,9.93,3.46,9.93,10.81v32.44h-5.32v-31.02c0-5.58-1.77-7.53-5.76-7.53s-7.8,2.3-11.52,5.58v32.97h-5.32v-31.02c0-5.58-1.77-7.53-5.76-7.53s-7.71,2.57-11.52,5.85v32.7h-5.32v-42.36Z"/>
        <path class="st3" d="M610.03,337.65v-4.34h5.05v-10.46c0-7.98,4.52-11.17,10.01-11.17,3.37,0,5.85.62,8.33,2.22l-2.04,3.9c-1.86-.98-3.54-1.6-5.76-1.6-3.37,0-5.23,2.04-5.23,6.74v10.37h8.6v4.34h-8.6v38.02h-5.32v-38.02h-5.05Z"/>
        <path class="st3" d="M640.08,365.39v-32.08h5.23v30.66c0,5.76,2.3,7.89,6.56,7.89s8.33-2.48,12.23-5.67v-32.88h5.32v42.36h-3.81l-1.24-5.67c-3.99,3.81-8.33,6.56-13.56,6.56-6.11,0-10.72-3.63-10.72-11.17ZM643.36,322.76c0-2.3,1.68-3.99,3.9-3.99s3.99,1.68,3.99,3.99-1.68,3.99-3.9,3.99-3.99-1.68-3.99-3.99ZM658.51,322.76c0-2.3,1.68-3.99,3.9-3.99s3.99,1.68,3.99,3.99-1.68,3.99-3.9,3.99-3.99-1.68-3.99-3.99Z"/>
        <path class="st3" d="M685.28,333.31h3.72l1.24,7.18c3.54-4.34,7.8-7.8,12.85-7.8.44,0,1.24.09,1.33.18l-.53,5.67c-.35-.18-1.06-.27-1.86-.27-4.34,0-7.62,2.22-11.43,6.29v31.11h-5.32v-42.36Z"/>
        <path class="st3" d="M736.24,314.79h5.58v60.88h-5.58v-60.88ZM743.51,342.88l21-28.09h6.2l-20.92,27.83,21.54,33.06h-6.38l-21.45-32.79Z"/>
        <path class="st3" d="M780.02,317.98v-3.19h18.17v3.19l-6.29.53v53.44l6.29.53v3.19h-18.17v-3.19l6.29-.53v-53.44l-6.29-.53Z"/>
        <path class="st3" d="M807.32,349.26h15.86v5.32h-15.86v-5.32Z"/>
        <path class="st3" d="M841.18,319.57h-14.98v-4.79h35.54v4.79h-14.98v56.1h-5.58v-56.1Z"/>
        <path class="st3" d="M868.56,333.31h3.72l1.24,7.18c3.54-4.34,7.8-7.8,12.85-7.8.44,0,1.24.09,1.33.18l-.53,5.67c-.35-.18-1.06-.27-1.86-.27-4.34,0-7.62,2.22-11.43,6.29v31.11h-5.32v-42.36Z"/>
        <path class="st3" d="M919.43,345.36c0-5.32-1.33-8.33-7-8.33-4.7,0-8.77,1.77-12.67,4.25l-2.13-3.9c4.17-2.75,8.69-4.96,15.24-4.96,7.8,0,11.88,3.81,11.88,12.23v31.02h-3.72l-1.33-5.14c-2.3,2.75-6.29,6.03-11.79,6.03-7.8,0-12.41-4.52-12.41-12.76,0-9.22,5.49-13.65,18.52-13.65h5.41v-4.79ZM919.43,354.23h-4.87c-10.63,0-13.47,2.84-13.47,9.66,0,5.85,2.39,8.24,7.44,8.24s8.68-3.1,10.9-5.85v-12.05Z"/>
        <path class="st3" d="M940.26,333.31h3.72l1.24,6.12c4.17-4.08,8.6-7,13.83-7,6.03,0,10.46,3.54,10.46,10.9v32.35h-5.32v-30.93c0-5.67-2.04-7.62-6.38-7.62s-8.42,2.75-12.23,6.12v32.44h-5.32v-42.36Z"/>
        <path class="st3" d="M980.5,371.95l2.3-3.81c3.28,2.39,6.82,3.99,11.43,3.99,6.29,0,8.86-2.84,8.86-7.44,0-5.14-2.3-6.65-9.57-8.95-6.29-1.95-10.99-4.87-10.99-12.5,0-5.94,4.08-10.81,12.5-10.81,5.14,0,8.6,1.24,11.52,2.92l-1.95,4.17c-3.1-1.68-5.58-2.57-9.48-2.57-4.79,0-7.53,1.95-7.53,6.2,0,4.61,2.13,5.85,8.06,7.8,7.09,2.3,12.58,4.7,12.58,13.47,0,8.24-5.23,12.14-14.09,12.14-5.67,0-10.55-2.13-13.65-4.61Z"/>
        <path class="st3" d="M1016.75,337.65v-4.34h5.05v-10.46c0-7.98,4.52-11.17,10.01-11.17,3.37,0,5.85.62,8.33,2.22l-2.04,3.9c-1.86-.98-3.54-1.6-5.76-1.6-3.37,0-5.23,2.04-5.23,6.74v10.37h8.6v4.34h-8.6v38.02h-5.32v-38.02h-5.05Z"/>
        <path class="st3" d="M1043.52,354.58c0-15.77,6.91-22.16,16.75-22.16s17.02,6.29,17.02,22.07-6.91,22.07-16.84,22.07-16.93-6.29-16.93-21.98ZM1071.7,354.67c0-13.38-3.99-17.99-11.34-17.99s-11.26,4.34-11.26,17.72,3.99,17.9,11.34,17.9,11.26-4.34,11.26-17.64Z"/>
        <path class="st3" d="M1090.4,333.31h3.72l1.24,7.18c3.54-4.34,7.8-7.8,12.85-7.8.44,0,1.24.09,1.33.18l-.53,5.67c-.35-.18-1.06-.27-1.86-.27-4.34,0-7.62,2.22-11.43,6.29v31.11h-5.32v-42.36Z"/>
        <path class="st3" d="M1120.18,333.31h3.72l1.24,5.85c3.99-3.81,7.98-6.74,13.03-6.74,4.7,0,7.89,2.48,9.39,6.56,4.34-3.9,8.42-6.56,13.21-6.56,5.85,0,9.93,3.46,9.93,10.81v32.44h-5.32v-31.02c0-5.58-1.77-7.53-5.76-7.53s-7.8,2.3-11.52,5.58v32.97h-5.32v-31.02c0-5.58-1.77-7.53-5.76-7.53s-7.71,2.57-11.52,5.85v32.7h-5.32v-42.36Z"/>
        <path class="st3" d="M1207.3,345.36c0-5.32-1.33-8.33-7-8.33-4.7,0-8.77,1.77-12.67,4.25l-2.13-3.9c4.17-2.75,8.68-4.96,15.24-4.96,7.8,0,11.88,3.81,11.88,12.23v31.02h-3.72l-1.33-5.14c-2.3,2.75-6.29,6.03-11.79,6.03-7.8,0-12.41-4.52-12.41-12.76,0-9.22,5.49-13.65,18.52-13.65h5.41v-4.79ZM1207.3,354.23h-4.87c-10.63,0-13.47,2.84-13.47,9.66,0,5.85,2.39,8.24,7.44,8.24s8.69-3.1,10.9-5.85v-12.05Z"/>
        <path class="st3" d="M1223.88,337.65v-4.34h5.14v-11.17l5.23-1.24v12.41h8.86v4.34h-8.86v30.66c0,2.57,1.15,3.9,3.54,3.9,2.22,0,3.81-.71,4.96-1.24l1.33,3.9c-1.77.89-3.72,1.68-6.56,1.68-4.79,0-8.51-2.22-8.51-7.98v-30.93h-5.14Z"/>
        <path class="st3" d="M1258.26,337.48l-6.03-.8v-3.37h11.34v42.36h-5.32v-38.2ZM1256.4,319.49c0-2.39,1.68-4.17,3.99-4.17s4.08,1.77,4.08,4.17-1.68,4.08-4.08,4.08-3.99-1.77-3.99-4.08Z"/>
        <path class="st3" d="M1276.96,354.58c0-15.77,6.91-22.16,16.75-22.16s17.02,6.29,17.02,22.07-6.91,22.07-16.84,22.07-16.93-6.29-16.93-21.98ZM1305.14,354.67c0-13.38-3.99-17.99-11.34-17.99s-11.25,4.34-11.25,17.72,3.99,17.9,11.34,17.9,11.25-4.34,11.25-17.64Z"/>
        <path class="st3" d="M1323.85,333.31h3.72l1.24,6.12c4.17-4.08,8.6-7,13.83-7,6.03,0,10.46,3.54,10.46,10.9v32.35h-5.32v-30.93c0-5.67-2.04-7.62-6.38-7.62s-8.42,2.75-12.23,6.12v32.44h-5.32v-42.36Z"/>
        <path class="st3" d="M614.11,471.75v-32.08h5.23v30.66c0,5.76,2.3,7.89,6.56,7.89s8.33-2.48,12.23-5.67v-32.88h5.32v42.36h-3.81l-1.24-5.67c-3.99,3.81-8.33,6.56-13.56,6.56-6.12,0-10.72-3.63-10.72-11.17Z"/>
        <path class="st3" d="M659.31,439.67h3.72l1.24,6.12c4.17-4.08,8.6-7,13.83-7,6.03,0,10.46,3.54,10.46,10.9v32.35h-5.32v-30.93c0-5.67-2.04-7.62-6.38-7.62s-8.42,2.75-12.23,6.12v32.44h-5.32v-42.36Z"/>
        <path class="st3" d="M701.59,460.85c0-15.24,5.05-22.07,14.62-22.07,5.32,0,9.31,3.01,12.05,5.85v-25.97h5.23v63.37h-3.72l-1.24-5.41c-3.19,3.46-7.53,6.29-12.58,6.29-8.51,0-14.36-5.85-14.36-22.07ZM728.26,472.63v-23.75c-3.1-3.19-6.74-5.49-11.08-5.49-6.65,0-10.1,3.9-10.1,17.02,0,14.18,3.28,17.9,9.66,17.9,4.79,0,8.33-2.75,11.52-5.67Z"/>
        <path class="st3" d="M770.54,421.14h30.13v4.79h-24.55v21.71h19.94v4.79h-19.94v24.81h25.61v4.79h-31.2v-60.88Z"/>
        <path class="st3" d="M814.41,439.67h3.72l1.24,5.85c3.99-3.81,7.98-6.74,13.03-6.74,4.7,0,7.89,2.48,9.39,6.56,4.34-3.9,8.42-6.56,13.2-6.56,5.85,0,9.93,3.46,9.93,10.81v32.44h-5.32v-31.02c0-5.58-1.77-7.53-5.76-7.53s-7.8,2.3-11.52,5.58v32.97h-5.32v-31.02c0-5.58-1.77-7.53-5.76-7.53s-7.71,2.57-11.52,5.85v32.7h-5.32v-42.36Z"/>
        <path class="st3" d="M880.44,439.67h3.72l1.24,5.67c3.19-3.54,7.62-6.56,12.67-6.56,8.42,0,14.36,5.94,14.36,22.07,0,15.24-5.14,22.07-14.71,22.07-5.32,0-9.22-2.75-11.96-5.58v22.78h-5.32v-60.44ZM906.85,461.29c0-14.18-3.19-17.9-9.57-17.9-4.87,0-8.42,3.01-11.52,5.85v23.84c3.1,3.1,6.74,5.23,10.99,5.23,6.65,0,10.1-3.9,10.1-17.02Z"/>
        <path class="st3" d="M923.07,460.94c0-15.77,6.91-22.16,16.75-22.16s17.02,6.29,17.02,22.07-6.91,22.07-16.84,22.07-16.93-6.29-16.93-21.98ZM951.25,461.03c0-13.38-3.99-17.99-11.34-17.99s-11.25,4.34-11.25,17.72,3.99,17.9,11.34,17.9,11.25-4.34,11.25-17.64Z"/>
        <path class="st3" d="M965.26,439.67h5.58l6.56,26.5c.89,3.81,1.77,9.04,1.95,10.1h.09c.27-1.06,1.06-6.2,2.04-9.75l7.36-26.85h5.85l7.09,26.5c.98,3.81,1.86,9.04,2.13,10.1h.09c.18-1.06,1.15-6.47,2.04-9.93l6.56-26.68h5.32l-11.17,42.36h-5.67l-7.53-27.92c-.89-3.28-1.51-7.36-1.86-9.39h-.09c-.35,2.04-1.06,6.03-1.95,9.39l-7.71,27.92h-5.58l-11.08-42.36Z"/>
        <path class="st3" d="M1043.34,478.4c4.87,0,7.8-1.68,10.55-3.81l2.92,3.72c-3.63,2.92-7.62,4.61-13.47,4.61-10.1,0-17.19-5.67-17.19-21.98s6.82-22.16,16.22-22.16,15.15,6.2,15.15,20.65v2.22h-25.79c.18,12.85,3.63,16.75,11.61,16.75ZM1052.02,457.48c0-10.81-3.19-14.36-9.75-14.36-5.94,0-9.84,3.28-10.46,14.36h20.21Z"/>
        <path class="st3" d="M1070.55,439.67h3.72l1.24,7.18c3.54-4.34,7.8-7.8,12.85-7.8.44,0,1.24.09,1.33.18l-.53,5.67c-.35-.18-1.06-.27-1.86-.27-4.34,0-7.62,2.22-11.43,6.29v31.11h-5.32v-42.36Z"/>
        <path class="st3" d="M1100.33,439.67h3.72l1.24,5.85c3.99-3.81,7.98-6.74,13.03-6.74,4.7,0,7.89,2.48,9.39,6.56,4.34-3.9,8.42-6.56,13.21-6.56,5.85,0,9.93,3.46,9.93,10.81v32.44h-5.32v-31.02c0-5.58-1.77-7.53-5.76-7.53s-7.8,2.3-11.52,5.58v32.97h-5.32v-31.02c0-5.58-1.77-7.53-5.76-7.53s-7.71,2.57-11.52,5.85v32.7h-5.32v-42.36Z"/>
        <path class="st3" d="M1180.8,478.4c4.87,0,7.8-1.68,10.55-3.81l2.92,3.72c-3.63,2.92-7.62,4.61-13.47,4.61-10.1,0-17.19-5.67-17.19-21.98s6.82-22.16,16.22-22.16,15.15,6.2,15.15,20.65v2.22h-25.79c.18,12.85,3.63,16.75,11.61,16.75ZM1189.49,457.48c0-10.81-3.19-14.36-9.75-14.36-5.94,0-9.84,3.28-10.46,14.36h20.21Z"/>
        <path class="st3" d="M1208.01,439.67h3.72l1.24,6.12c4.17-4.08,8.6-7,13.83-7,6.03,0,10.46,3.54,10.46,10.9v32.35h-5.32v-30.93c0-5.67-2.04-7.62-6.38-7.62s-8.42,2.75-12.23,6.12v32.44h-5.32v-42.36Z"/>
        <path class="st3" d="M1248.42,444.01v-4.34h5.14v-11.17l5.23-1.24v12.41h8.86v4.34h-8.86v30.66c0,2.57,1.15,3.9,3.54,3.9,2.22,0,3.81-.71,4.96-1.24l1.33,3.9c-1.77.89-3.72,1.68-6.56,1.68-4.79,0-8.51-2.22-8.51-7.98v-30.93h-5.14Z"/>
      </g>
      <g>
        <path class="st3" d="M500,204.87v178.79c0,8.28-6.72,15-15,15h-70c-8.28,0-15-6.72-15-15v-185h-185c-8.28,0-15-6.72-15-15v-70c0-8.28,6.72-15,15-15h178.79c3.98,0,7.79,1.58,10.61,4.39l45.61,45.61,45.61,45.61c2.81,2.81,4.39,6.63,4.39,10.61Z"/>
        <path class="st3" d="M300,398.65v185c0,8.28-6.72,15-15,15h-70c-8.28,0-15-6.72-15-15v-185H15c-8.28,0-15-6.72-15-15v-70c0-8.28,6.72-15,15-15h185c27.62,0,52.62,11.19,70.71,29.29,18.1,18.09,29.29,43.09,29.29,70.71Z"/>
      </g>
    </g>
  </g>
  <g id="Raster" class="st4">
    <line class="st1" x1="-100.87" y1="98.03" x2="1568.4" y2="98.03"/>
    <line class="st1" x1="-100.87" y1="599.28" x2="1568.4" y2="599.28"/>
    <line class="st1" x1="-100.87" y1="483.7" x2="1568.4" y2="483.7"/>
    <line class="st2" x1="611.55" y1="-2.22" x2="611.55" y2="699.52"/>
    <line class="st2" x1="500.62" y1="-2.22" x2="500.62" y2="699.52"/>
    <rect class="st0" x="-.62" y="98.03" width="501.25" height="501.25"/>
  </g>
</svg>